<svg width="19" height="19" viewBox="0 0 19 19" fill="none" xmlns="http://www.w3.org/2000/svg">
<g clip-path="url(#clip0_13_1942)">
<path d="M10.1109 14.4289L18.7471 5.7925C19.0843 5.45528 19.0843 4.90842 18.747 4.57115C18.4097 4.23392 17.8629 4.23392 17.5257 4.5712L9.50017 12.5969L1.47429 4.57115C1.13701 4.23392 0.59021 4.23392 0.252932 4.5712C0.0842934 4.73979 1.90735e-06 4.96082 1.90735e-06 5.18185C1.90735e-06 5.40289 0.0842934 5.62392 0.252991 5.79256L8.88958 14.4289C9.05154 14.5909 9.27119 14.6819 9.50023 14.6819C9.72927 14.6819 9.94898 14.5909 10.1109 14.4289Z" fill="white"/>
</g>
<defs>
<clipPath id="clip0_13_1942">
<rect width="19" height="19" fill="white" transform="matrix(0 1 -1 0 19 0)"/>
</clipPath>
</defs>
</svg>
