<svg width="45" height="45" viewBox="0 0 45 45" fill="none" xmlns="http://www.w3.org/2000/svg">
<g clip-path="url(#clip0_1_403)">
<path d="M22.5004 42.6938C22.4132 42.6938 22.3246 42.6699 22.2459 42.6235L5.37086 32.7797C5.21477 32.6897 5.11914 32.5238 5.11914 32.3438V12.6563H6.13164V32.0527L22.5004 41.6011L38.8691 32.0527V19.6875H39.883V32.3438C39.883 32.5238 39.7874 32.6897 39.6313 32.7811L22.7563 42.6249C22.6762 42.6713 22.5876 42.6938 22.5004 42.6938ZM22.5004 28.6313C19.1198 28.6313 16.3691 25.8807 16.3691 22.5C16.3691 19.1194 19.1198 16.3688 22.5004 16.3688C24.6295 16.3688 26.5082 17.4586 27.6065 19.1096L38.3798 12.6619L22.5004 3.39895L17.3816 6.37457V14.0625H16.3691V6.08207C16.3691 5.90207 16.4648 5.73473 16.6209 5.64473L22.2459 2.3752C22.4034 2.28379 22.5988 2.28379 22.7549 2.3752L39.6299 12.2189C39.7832 12.3089 39.8802 12.4749 39.8816 12.6535C39.8816 12.8321 39.7888 12.9994 39.6341 13.0908L28.0959 19.9969C28.439 20.7619 28.6316 21.6085 28.6316 22.5C28.6316 25.8807 25.881 28.6313 22.5004 28.6313ZM22.5004 17.3813C19.678 17.3813 17.3816 19.6777 17.3816 22.5C17.3816 25.3224 19.678 27.6188 22.5004 27.6188C25.3227 27.6188 27.6191 25.3224 27.6191 22.5C27.6191 19.6777 25.3227 17.3813 22.5004 17.3813ZM11.7566 22.5H10.7441V8.43754H11.7566V22.5Z" fill="#E84E0E"/>
</g>
<defs>
<clipPath id="clip0_1_403">
<rect width="45" height="45" fill="white"/>
</clipPath>
</defs>
</svg>
